<svg xmlns="http://www.w3.org/2000/svg" width="32" height="32" viewBox="0 0 32 32"><g transform="translate(0 -1020.362)"><path d="m 2.5000011,1023.3603 0,26 2.3847656,0 9.1972653,0 3.417969,0 5,0 0,-4.9316 0,-3.3516 0,-10.4414 0,-1 0,-1.2754 -5,0 0,-5 z" color="#000" opacity=".146" overflow="visible" style="isolation:auto;mix-blend-mode:normal"/><path style="isolation:auto;mix-blend-mode:normal" fill="#78c8f0" d="m 3.5000012,1022.3603 0,26 2.3847656,0 9.1972652,0 3.417969,0 5,0 0,-4.9316 0,-3.3516 0,-10.4414 0,-1 0,-1.2754 -5,-5 z" color="#000" opacity=".97" overflow="visible"/><path fill="#4bbfeb" fill-rule="evenodd" d="m 18.500002,1022.3603 0,5 5,0"/><path fill="none" stroke="#2b4255" d="M5.500001 1026.8603l11 0M5.5000012 1029.8603l13.9999988 0M5.5000012 1032.8603l13.9999998 0"/><path style="isolation:auto;mix-blend-mode:normal" d="m 28.35219,1029.5044 c 0.587613,0.5876 0.587606,1.5337 0,2.1213 l -1.06066,1.0607 -15.556349,15.5563 -4.242641,1.4143 20.506097,-20.5061 0.353553,0.3535 z" color="#000" opacity=".15" overflow="visible"/><path d="m 27.645083,1028.7973 c -0.587613,-0.5876 -1.533714,-0.5876 -2.12132,0 l -1.06066,1.0607 -15.5563494,15.5563 -1.4142136,4.2427 20.506097,-20.5061 -0.353554,-0.3536 z" color="#000" opacity=".15" overflow="visible" style="isolation:auto;mix-blend-mode:normal"/><rect style="isolation:auto;mix-blend-mode:normal" width="4" height="22" x="746.518" y="710.921" fill="#f05542" color="#000" overflow="visible" transform="rotate(45)"/><path style="isolation:auto;mix-blend-mode:normal" fill="#e9eded" d="M9.6138604 1046.1214l2.8284266 2.8284-4.2426402 1.4143zM25.17021 1030.5651l1.06066-1.0607c.587605-.5876 1.533721-.5876 2.121334 0l.707079.7071c.587612.5876.58762 1.5337.000014 2.1213l-1.06066 1.0607z" color="#000" overflow="visible"/><path fill="none" stroke="#34485c" d="m 11.028074,1047.5356 15.55642,-15.5564"/><path style="isolation:auto;mix-blend-mode:normal" fill="#34485c" d="m 8.5532002,1049.3034 -0.3535534,1.0607 1.0606602,-0.3536 -0.7071068,-0.7071 z" color="#000" overflow="visible"/><rect width="4" height="1" x="746.518" y="710.922" fill="#34485c" color="#000" overflow="visible" transform="rotate(45)" style="isolation:auto;mix-blend-mode:normal"/></g></svg>